<mxfile host="app.diagrams.net" modified="2021-01-07T15:33:57.592Z" agent="5.0 (Windows NT 10.0; Win64; x64) AppleWebKit/537.36 (KHTML, like Gecko) Chrome/87.0.4280.88 Safari/537.36" etag="SWcDf5GIKdxzLB7ObSWd" version="14.1.8" type="github">
  <diagram id="Jl-ld7IJY7KhRFW_68o6" name="Page-1">
    <mxGraphModel dx="1278" dy="548" grid="1" gridSize="10" guides="1" tooltips="1" connect="1" arrows="1" fold="1" page="1" pageScale="1" pageWidth="827" pageHeight="1169" math="0" shadow="0">
      <root>
        <mxCell id="0" />
        <mxCell id="1" parent="0" />
        <mxCell id="0uzeYFrNaxtriDSZuLDR-7" value="" style="edgeStyle=orthogonalEdgeStyle;rounded=0;orthogonalLoop=1;jettySize=auto;html=1;" parent="1" source="0uzeYFrNaxtriDSZuLDR-1" target="0uzeYFrNaxtriDSZuLDR-6" edge="1">
          <mxGeometry relative="1" as="geometry" />
        </mxCell>
        <mxCell id="0uzeYFrNaxtriDSZuLDR-1" value="Joana" style="rounded=0;whiteSpace=wrap;html=1;" parent="1" vertex="1">
          <mxGeometry x="334" y="20" width="120" height="60" as="geometry" />
        </mxCell>
        <mxCell id="0uzeYFrNaxtriDSZuLDR-21" style="edgeStyle=orthogonalEdgeStyle;rounded=0;orthogonalLoop=1;jettySize=auto;html=1;entryX=0.5;entryY=0;entryDx=0;entryDy=0;" parent="1" source="0uzeYFrNaxtriDSZuLDR-6" target="0uzeYFrNaxtriDSZuLDR-9" edge="1">
          <mxGeometry relative="1" as="geometry" />
        </mxCell>
        <mxCell id="0uzeYFrNaxtriDSZuLDR-6" value="Voce está correndo pelos arredores do acampamento quando vê um belíssimo exemplos de uma faca novinha no chão" style="rounded=0;whiteSpace=wrap;html=1;" parent="1" vertex="1">
          <mxGeometry x="314" y="120" width="160" height="70" as="geometry" />
        </mxCell>
        <mxCell id="0uzeYFrNaxtriDSZuLDR-20" style="edgeStyle=orthogonalEdgeStyle;rounded=0;orthogonalLoop=1;jettySize=auto;html=1;entryX=0;entryY=0.5;entryDx=0;entryDy=0;" parent="1" source="0uzeYFrNaxtriDSZuLDR-9" target="0uzeYFrNaxtriDSZuLDR-18" edge="1">
          <mxGeometry relative="1" as="geometry" />
        </mxCell>
        <mxCell id="0uzeYFrNaxtriDSZuLDR-22" style="edgeStyle=orthogonalEdgeStyle;rounded=0;orthogonalLoop=1;jettySize=auto;html=1;entryX=1;entryY=0.5;entryDx=0;entryDy=0;" parent="1" source="0uzeYFrNaxtriDSZuLDR-9" target="0uzeYFrNaxtriDSZuLDR-17" edge="1">
          <mxGeometry relative="1" as="geometry" />
        </mxCell>
        <mxCell id="0uzeYFrNaxtriDSZuLDR-9" value="Pega a faca?" style="ellipse;whiteSpace=wrap;html=1;" parent="1" vertex="1">
          <mxGeometry x="359" y="220" width="70" height="40" as="geometry" />
        </mxCell>
        <mxCell id="0uzeYFrNaxtriDSZuLDR-12" value="Sim" style="text;html=1;resizable=0;autosize=1;align=center;verticalAlign=middle;points=[];fillColor=none;strokeColor=none;rounded=0;" parent="1" vertex="1">
          <mxGeometry x="314" y="240" width="40" height="20" as="geometry" />
        </mxCell>
        <mxCell id="0uzeYFrNaxtriDSZuLDR-13" value="Não" style="text;html=1;resizable=0;autosize=1;align=center;verticalAlign=middle;points=[];fillColor=none;strokeColor=none;rounded=0;" parent="1" vertex="1">
          <mxGeometry x="440" y="240" width="40" height="20" as="geometry" />
        </mxCell>
        <mxCell id="0uzeYFrNaxtriDSZuLDR-24" value="" style="edgeStyle=orthogonalEdgeStyle;rounded=0;orthogonalLoop=1;jettySize=auto;html=1;" parent="1" source="0uzeYFrNaxtriDSZuLDR-17" target="0uzeYFrNaxtriDSZuLDR-23" edge="1">
          <mxGeometry relative="1" as="geometry" />
        </mxCell>
        <mxCell id="0uzeYFrNaxtriDSZuLDR-17" value="Leva ela pro seu dormitório para limpar e analisar. Tem a sensação de estar sendo observada, mas acaba deixando isso pra lá." style="rounded=0;whiteSpace=wrap;html=1;" parent="1" vertex="1">
          <mxGeometry x="130" y="240" width="150" height="80" as="geometry" />
        </mxCell>
        <mxCell id="0uzeYFrNaxtriDSZuLDR-47" value="" style="edgeStyle=orthogonalEdgeStyle;rounded=0;orthogonalLoop=1;jettySize=auto;html=1;" parent="1" source="0uzeYFrNaxtriDSZuLDR-18" target="0uzeYFrNaxtriDSZuLDR-46" edge="1">
          <mxGeometry relative="1" as="geometry" />
        </mxCell>
        <mxCell id="0uzeYFrNaxtriDSZuLDR-18" value="Vai para o dormitório tomar banho e se preparar pra confraternização na fogueira." style="rounded=0;whiteSpace=wrap;html=1;" parent="1" vertex="1">
          <mxGeometry x="530" y="245" width="140" height="70" as="geometry" />
        </mxCell>
        <mxCell id="0uzeYFrNaxtriDSZuLDR-26" value="" style="edgeStyle=orthogonalEdgeStyle;rounded=0;orthogonalLoop=1;jettySize=auto;html=1;" parent="1" source="0uzeYFrNaxtriDSZuLDR-23" target="0uzeYFrNaxtriDSZuLDR-25" edge="1">
          <mxGeometry relative="1" as="geometry" />
        </mxCell>
        <mxCell id="0uzeYFrNaxtriDSZuLDR-23" value="Você leva a faca contigo pra mostrar pros amigos, o pessoal achou maneiro e de muita sorte ter encontrado um objeto tão raro.&amp;nbsp;" style="whiteSpace=wrap;html=1;rounded=0;" parent="1" vertex="1">
          <mxGeometry x="112.5" y="360" width="185" height="70" as="geometry" />
        </mxCell>
        <mxCell id="0uzeYFrNaxtriDSZuLDR-29" value="" style="edgeStyle=orthogonalEdgeStyle;rounded=0;orthogonalLoop=1;jettySize=auto;html=1;entryX=0.466;entryY=0.25;entryDx=0;entryDy=0;entryPerimeter=0;" parent="1" source="0uzeYFrNaxtriDSZuLDR-25" target="0uzeYFrNaxtriDSZuLDR-58" edge="1">
          <mxGeometry relative="1" as="geometry">
            <mxPoint x="205" y="610" as="targetPoint" />
          </mxGeometry>
        </mxCell>
        <mxCell id="0uzeYFrNaxtriDSZuLDR-25" value="De repente vocês escutam um barulho estranho na mata. Todos com medo mas, como você é destemida, resolvi ir ver o que é. O vulto vai ficando mais próximo, mais próximo e quando vê era um filhote de veado a espreita. Você volta pra fogueira." style="whiteSpace=wrap;html=1;rounded=0;" parent="1" vertex="1">
          <mxGeometry x="83.25" y="470" width="243.5" height="100" as="geometry" />
        </mxCell>
        <mxCell id="0uzeYFrNaxtriDSZuLDR-34" style="edgeStyle=orthogonalEdgeStyle;rounded=0;orthogonalLoop=1;jettySize=auto;html=1;entryX=0.5;entryY=0;entryDx=0;entryDy=0;" parent="1" source="0uzeYFrNaxtriDSZuLDR-30" target="0uzeYFrNaxtriDSZuLDR-32" edge="1">
          <mxGeometry relative="1" as="geometry" />
        </mxCell>
        <mxCell id="0uzeYFrNaxtriDSZuLDR-35" style="edgeStyle=orthogonalEdgeStyle;rounded=0;orthogonalLoop=1;jettySize=auto;html=1;entryX=0.5;entryY=0;entryDx=0;entryDy=0;" parent="1" source="0uzeYFrNaxtriDSZuLDR-30" target="0uzeYFrNaxtriDSZuLDR-33" edge="1">
          <mxGeometry relative="1" as="geometry" />
        </mxCell>
        <mxCell id="0uzeYFrNaxtriDSZuLDR-30" value="Ir junto ou fazer seu treino noturno para se manter em forma já que o campeonato regional é semana que vem?" style="ellipse;whiteSpace=wrap;html=1;" parent="1" vertex="1">
          <mxGeometry x="118.56" y="710" width="172.87" height="70" as="geometry" />
        </mxCell>
        <mxCell id="0uzeYFrNaxtriDSZuLDR-42" style="edgeStyle=orthogonalEdgeStyle;rounded=0;orthogonalLoop=1;jettySize=auto;html=1;" parent="1" source="0uzeYFrNaxtriDSZuLDR-32" target="0uzeYFrNaxtriDSZuLDR-36" edge="1">
          <mxGeometry relative="1" as="geometry" />
        </mxCell>
        <mxCell id="0uzeYFrNaxtriDSZuLDR-32" value="Treinar" style="rounded=1;whiteSpace=wrap;html=1;" parent="1" vertex="1">
          <mxGeometry x="100" y="810" width="60" height="30" as="geometry" />
        </mxCell>
        <mxCell id="0uzeYFrNaxtriDSZuLDR-62" style="edgeStyle=orthogonalEdgeStyle;rounded=0;orthogonalLoop=1;jettySize=auto;html=1;entryX=0;entryY=0.5;entryDx=0;entryDy=0;entryPerimeter=0;" parent="1" source="0uzeYFrNaxtriDSZuLDR-33" target="0uzeYFrNaxtriDSZuLDR-60" edge="1">
          <mxGeometry relative="1" as="geometry" />
        </mxCell>
        <mxCell id="0uzeYFrNaxtriDSZuLDR-33" value="Ir junto" style="rounded=1;whiteSpace=wrap;html=1;" parent="1" vertex="1">
          <mxGeometry x="237.5" y="810" width="60" height="30" as="geometry" />
        </mxCell>
        <mxCell id="0uzeYFrNaxtriDSZuLDR-41" value="" style="edgeStyle=orthogonalEdgeStyle;rounded=0;orthogonalLoop=1;jettySize=auto;html=1;" parent="1" source="0uzeYFrNaxtriDSZuLDR-36" target="0uzeYFrNaxtriDSZuLDR-40" edge="1">
          <mxGeometry relative="1" as="geometry" />
        </mxCell>
        <mxCell id="0uzeYFrNaxtriDSZuLDR-36" value="No seu treino all by yourself, mega concentrada, você ouve um barulho e vê denovo um vulto mas deixa pra lá porque deve ser o Bambi mais um vez." style="whiteSpace=wrap;html=1;rounded=1;" parent="1" vertex="1">
          <mxGeometry x="19.880000000000003" y="880" width="182.5" height="85" as="geometry" />
        </mxCell>
        <mxCell id="0uzeYFrNaxtriDSZuLDR-44" value="" style="edgeStyle=orthogonalEdgeStyle;rounded=0;orthogonalLoop=1;jettySize=auto;html=1;" parent="1" source="0uzeYFrNaxtriDSZuLDR-40" target="0uzeYFrNaxtriDSZuLDR-43" edge="1">
          <mxGeometry relative="1" as="geometry" />
        </mxCell>
        <mxCell id="0uzeYFrNaxtriDSZuLDR-40" value="Silêncio total. Você se vê caída na chão. Algo quente escorre da sua testa. O tal serial killer que você não deu bola te matou primeiro por ter roubado a faca dele." style="whiteSpace=wrap;html=1;rounded=1;fillColor=#f8cecc;strokeColor=#b85450;" parent="1" vertex="1">
          <mxGeometry x="10" y="990" width="202.25" height="75" as="geometry" />
        </mxCell>
        <mxCell id="0uzeYFrNaxtriDSZuLDR-43" value="Deseja jogar denovo?" style="whiteSpace=wrap;html=1;rounded=1;" parent="1" vertex="1">
          <mxGeometry x="51.135" y="1090" width="120" height="60" as="geometry" />
        </mxCell>
        <mxCell id="0uzeYFrNaxtriDSZuLDR-54" style="edgeStyle=orthogonalEdgeStyle;rounded=0;orthogonalLoop=1;jettySize=auto;html=1;entryX=0.448;entryY=0.286;entryDx=0;entryDy=0;entryPerimeter=0;" parent="1" source="0uzeYFrNaxtriDSZuLDR-46" target="0uzeYFrNaxtriDSZuLDR-60" edge="1">
          <mxGeometry relative="1" as="geometry">
            <mxPoint x="600" y="490" as="targetPoint" />
          </mxGeometry>
        </mxCell>
        <mxCell id="0uzeYFrNaxtriDSZuLDR-46" value="As histórias de terror tão comendo soltas, você não liga, acha até graça. mas vê Diana morrendo de medo. Como você é a fim dela, chega mais perto para abraça-la." style="whiteSpace=wrap;html=1;rounded=0;" parent="1" vertex="1">
          <mxGeometry x="505" y="360" width="190" height="90" as="geometry" />
        </mxCell>
        <mxCell id="0uzeYFrNaxtriDSZuLDR-59" style="edgeStyle=orthogonalEdgeStyle;rounded=0;orthogonalLoop=1;jettySize=auto;html=1;entryX=0.5;entryY=0;entryDx=0;entryDy=0;" parent="1" source="0uzeYFrNaxtriDSZuLDR-58" target="0uzeYFrNaxtriDSZuLDR-30" edge="1">
          <mxGeometry relative="1" as="geometry" />
        </mxCell>
        <mxCell id="0uzeYFrNaxtriDSZuLDR-58" value="&lt;span&gt;O pessoal achou melhor ficar papeando dentro do dormitório agora porque tinha mosquitos demais.&lt;/span&gt;" style="shape=tape;whiteSpace=wrap;html=1;" parent="1" vertex="1">
          <mxGeometry x="121.43" y="585" width="170" height="100" as="geometry" />
        </mxCell>
        <mxCell id="0uzeYFrNaxtriDSZuLDR-67" style="edgeStyle=orthogonalEdgeStyle;rounded=0;orthogonalLoop=1;jettySize=auto;html=1;entryX=0.5;entryY=0;entryDx=0;entryDy=0;" parent="1" source="0uzeYFrNaxtriDSZuLDR-60" target="0uzeYFrNaxtriDSZuLDR-63" edge="1">
          <mxGeometry relative="1" as="geometry" />
        </mxCell>
        <mxCell id="0uzeYFrNaxtriDSZuLDR-60" value="&lt;span&gt;O pessoal achou melhor ficar papeando dentro do dormitório agora porque tinha mosquitos demais.&lt;/span&gt;" style="shape=tape;whiteSpace=wrap;html=1;" parent="1" vertex="1">
          <mxGeometry x="525" y="470" width="170" height="100" as="geometry" />
        </mxCell>
        <mxCell id="0uzeYFrNaxtriDSZuLDR-65" style="edgeStyle=orthogonalEdgeStyle;rounded=0;orthogonalLoop=1;jettySize=auto;html=1;" parent="1" source="0uzeYFrNaxtriDSZuLDR-63" edge="1">
          <mxGeometry relative="1" as="geometry">
            <mxPoint x="610" y="760" as="targetPoint" />
          </mxGeometry>
        </mxCell>
        <mxCell id="0uzeYFrNaxtriDSZuLDR-63" value="Você não deixa de reparar mais uma vez o quanto aquele dormitório parecia na verdade uma casa! Tinha 3 banheiros, varios quartos, uma cozinha imensa, sala... Poderia morar ali facilmente." style="whiteSpace=wrap;html=1;" parent="1" vertex="1">
          <mxGeometry x="500" y="600" width="220" height="100" as="geometry" />
        </mxCell>
        <mxCell id="0uzeYFrNaxtriDSZuLDR-69" style="edgeStyle=orthogonalEdgeStyle;rounded=0;orthogonalLoop=1;jettySize=auto;html=1;" parent="1" source="0uzeYFrNaxtriDSZuLDR-66" edge="1">
          <mxGeometry relative="1" as="geometry">
            <mxPoint x="615" y="890" as="targetPoint" />
          </mxGeometry>
        </mxCell>
        <mxCell id="0uzeYFrNaxtriDSZuLDR-66" value="Enquanto o povo conversava, ria ou se cagava de medo na sala, um barulho de porta fechando não passou desapercebido." style="rounded=0;whiteSpace=wrap;html=1;" parent="1" vertex="1">
          <mxGeometry x="525" y="760" width="180" height="75" as="geometry" />
        </mxCell>
        <mxCell id="0uzeYFrNaxtriDSZuLDR-76" value="" style="edgeStyle=orthogonalEdgeStyle;rounded=0;orthogonalLoop=1;jettySize=auto;html=1;entryX=0.5;entryY=0;entryDx=0;entryDy=0;" parent="1" source="0uzeYFrNaxtriDSZuLDR-70" target="0uzeYFrNaxtriDSZuLDR-102" edge="1">
          <mxGeometry relative="1" as="geometry">
            <mxPoint x="615" y="1040" as="targetPoint" />
          </mxGeometry>
        </mxCell>
        <mxCell id="0uzeYFrNaxtriDSZuLDR-70" value="Ta, dessa vez você estava com medo, mas não se deixou levar. Como Diana tava tensa e Fred quase desmaiando, você se oferece pra ir ver se não era o vento, ou algo assim." style="rounded=0;whiteSpace=wrap;html=1;" parent="1" vertex="1">
          <mxGeometry x="508.75" y="893" width="212.5" height="107" as="geometry" />
        </mxCell>
        <mxCell id="0uzeYFrNaxtriDSZuLDR-83" value="1" style="text;html=1;resizable=0;autosize=1;align=center;verticalAlign=middle;points=[];fillColor=none;strokeColor=none;rounded=0;" parent="1" vertex="1">
          <mxGeometry x="101.43" y="790" width="20" height="20" as="geometry" />
        </mxCell>
        <mxCell id="0uzeYFrNaxtriDSZuLDR-84" value="1" style="text;html=1;resizable=0;autosize=1;align=center;verticalAlign=middle;points=[];fillColor=none;strokeColor=none;rounded=0;" parent="1" vertex="1">
          <mxGeometry x="463.75" y="1105" width="20" height="20" as="geometry" />
        </mxCell>
        <mxCell id="0uzeYFrNaxtriDSZuLDR-85" value="0" style="text;html=1;resizable=0;autosize=1;align=center;verticalAlign=middle;points=[];fillColor=none;strokeColor=none;rounded=0;" parent="1" vertex="1">
          <mxGeometry x="271.43" y="790" width="20" height="20" as="geometry" />
        </mxCell>
        <mxCell id="0uzeYFrNaxtriDSZuLDR-86" value="0" style="text;html=1;resizable=0;autosize=1;align=center;verticalAlign=middle;points=[];fillColor=none;strokeColor=none;rounded=0;" parent="1" vertex="1">
          <mxGeometry x="728.75" y="1107.5" width="20" height="20" as="geometry" />
        </mxCell>
        <mxCell id="0uzeYFrNaxtriDSZuLDR-132" value="" style="edgeStyle=orthogonalEdgeStyle;rounded=0;orthogonalLoop=1;jettySize=auto;html=1;" parent="1" source="0uzeYFrNaxtriDSZuLDR-88" target="0uzeYFrNaxtriDSZuLDR-131" edge="1">
          <mxGeometry relative="1" as="geometry" />
        </mxCell>
        <mxCell id="0uzeYFrNaxtriDSZuLDR-88" value="Vocês adentram a despensa quando de repente a porta atrás de vocês se fecha, vocês tentam abrir mas tá trancada! Do lado de fora, ouvem-se gritos." style="rounded=0;whiteSpace=wrap;html=1;" parent="1" vertex="1">
          <mxGeometry x="291.43" y="1195" width="165" height="80" as="geometry" />
        </mxCell>
        <mxCell id="0uzeYFrNaxtriDSZuLDR-96" style="edgeStyle=orthogonalEdgeStyle;rounded=0;orthogonalLoop=1;jettySize=auto;html=1;entryX=0.5;entryY=0;entryDx=0;entryDy=0;" parent="1" source="0uzeYFrNaxtriDSZuLDR-91" target="0uzeYFrNaxtriDSZuLDR-95" edge="1">
          <mxGeometry relative="1" as="geometry" />
        </mxCell>
        <mxCell id="0uzeYFrNaxtriDSZuLDR-91" value="Vocês vão até o quartinho dos fundos; A porta se fecha atrás de vocês, não dá mais pra abrir, mas Úrsula tem a genial ideia de usar seus grampos de cabelo para abrir a porta. E não é que deu certo?" style="rounded=0;whiteSpace=wrap;html=1;" parent="1" vertex="1">
          <mxGeometry x="592.75" y="1205" width="210" height="80" as="geometry" />
        </mxCell>
        <mxCell id="0uzeYFrNaxtriDSZuLDR-124" style="edgeStyle=orthogonalEdgeStyle;rounded=0;orthogonalLoop=1;jettySize=auto;html=1;entryX=0.5;entryY=0;entryDx=0;entryDy=0;" parent="1" source="0uzeYFrNaxtriDSZuLDR-95" target="0uzeYFrNaxtriDSZuLDR-123" edge="1">
          <mxGeometry relative="1" as="geometry" />
        </mxCell>
        <mxCell id="0uzeYFrNaxtriDSZuLDR-95" value="Vocês saem de fininho em direção a sala. Encontram uma terrível cena: um homem imenso, mascarado, com uma peixeira se aproximava da Diana. Por que ela estava sozinha?" style="rounded=0;whiteSpace=wrap;html=1;" parent="1" vertex="1">
          <mxGeometry x="610.25" y="1315" width="175" height="100" as="geometry" />
        </mxCell>
        <mxCell id="0uzeYFrNaxtriDSZuLDR-128" style="edgeStyle=orthogonalEdgeStyle;rounded=0;orthogonalLoop=1;jettySize=auto;html=1;entryX=0.5;entryY=0;entryDx=0;entryDy=0;" parent="1" source="0uzeYFrNaxtriDSZuLDR-99" target="0uzeYFrNaxtriDSZuLDR-118" edge="1">
          <mxGeometry relative="1" as="geometry" />
        </mxCell>
        <mxCell id="0uzeYFrNaxtriDSZuLDR-99" value="Pega uma faca na cozinha" style="rounded=0;whiteSpace=wrap;html=1;" parent="1" vertex="1">
          <mxGeometry x="498.75" y="1535" width="80" height="40" as="geometry" />
        </mxCell>
        <mxCell id="0uzeYFrNaxtriDSZuLDR-108" style="edgeStyle=orthogonalEdgeStyle;rounded=0;orthogonalLoop=1;jettySize=auto;html=1;entryX=0.5;entryY=0;entryDx=0;entryDy=0;" parent="1" source="0uzeYFrNaxtriDSZuLDR-100" target="0uzeYFrNaxtriDSZuLDR-88" edge="1">
          <mxGeometry relative="1" as="geometry" />
        </mxCell>
        <mxCell id="0uzeYFrNaxtriDSZuLDR-100" value="Ariel" style="rounded=0;whiteSpace=wrap;html=1;" parent="1" vertex="1">
          <mxGeometry x="438.75" y="1125" width="70" height="30" as="geometry" />
        </mxCell>
        <mxCell id="0uzeYFrNaxtriDSZuLDR-107" style="edgeStyle=orthogonalEdgeStyle;rounded=0;orthogonalLoop=1;jettySize=auto;html=1;entryX=0.5;entryY=0;entryDx=0;entryDy=0;" parent="1" source="0uzeYFrNaxtriDSZuLDR-101" target="0uzeYFrNaxtriDSZuLDR-91" edge="1">
          <mxGeometry relative="1" as="geometry" />
        </mxCell>
        <mxCell id="0uzeYFrNaxtriDSZuLDR-101" value="Úrsula" style="rounded=0;whiteSpace=wrap;html=1;" parent="1" vertex="1">
          <mxGeometry x="703.75" y="1125" width="70" height="30" as="geometry" />
        </mxCell>
        <mxCell id="0uzeYFrNaxtriDSZuLDR-104" style="edgeStyle=orthogonalEdgeStyle;rounded=0;orthogonalLoop=1;jettySize=auto;html=1;entryX=0;entryY=0.5;entryDx=0;entryDy=0;" parent="1" source="0uzeYFrNaxtriDSZuLDR-102" target="0uzeYFrNaxtriDSZuLDR-101" edge="1">
          <mxGeometry relative="1" as="geometry" />
        </mxCell>
        <mxCell id="0uzeYFrNaxtriDSZuLDR-105" style="edgeStyle=orthogonalEdgeStyle;rounded=0;orthogonalLoop=1;jettySize=auto;html=1;entryX=1;entryY=0.5;entryDx=0;entryDy=0;" parent="1" source="0uzeYFrNaxtriDSZuLDR-102" target="0uzeYFrNaxtriDSZuLDR-100" edge="1">
          <mxGeometry relative="1" as="geometry" />
        </mxCell>
        <mxCell id="0uzeYFrNaxtriDSZuLDR-102" value="&lt;span&gt;Quem você chama pra ir com você?&lt;/span&gt;" style="ellipse;whiteSpace=wrap;html=1;" parent="1" vertex="1">
          <mxGeometry x="551.25" y="1100" width="125" height="35" as="geometry" />
        </mxCell>
        <mxCell id="0uzeYFrNaxtriDSZuLDR-127" style="edgeStyle=orthogonalEdgeStyle;rounded=0;orthogonalLoop=1;jettySize=auto;html=1;entryX=0.5;entryY=0;entryDx=0;entryDy=0;" parent="1" source="0uzeYFrNaxtriDSZuLDR-110" target="0uzeYFrNaxtriDSZuLDR-116" edge="1">
          <mxGeometry relative="1" as="geometry" />
        </mxCell>
        <mxCell id="0uzeYFrNaxtriDSZuLDR-110" value="Vai na cozinha e pega uma chaleira de água fervente" style="rounded=0;whiteSpace=wrap;html=1;" parent="1" vertex="1">
          <mxGeometry x="695" y="1526.25" width="100" height="57.5" as="geometry" />
        </mxCell>
        <mxCell id="0uzeYFrNaxtriDSZuLDR-113" value="1" style="text;html=1;resizable=0;autosize=1;align=center;verticalAlign=middle;points=[];fillColor=none;strokeColor=none;rounded=0;" parent="1" vertex="1">
          <mxGeometry x="531.25" y="1515" width="20" height="20" as="geometry" />
        </mxCell>
        <mxCell id="0uzeYFrNaxtriDSZuLDR-114" value="0" style="text;html=1;resizable=0;autosize=1;align=center;verticalAlign=middle;points=[];fillColor=none;strokeColor=none;rounded=0;" parent="1" vertex="1">
          <mxGeometry x="735" y="1505" width="20" height="20" as="geometry" />
        </mxCell>
        <mxCell id="0uzeYFrNaxtriDSZuLDR-129" style="edgeStyle=orthogonalEdgeStyle;rounded=0;orthogonalLoop=1;jettySize=auto;html=1;entryX=0.5;entryY=0;entryDx=0;entryDy=0;" parent="1" source="0uzeYFrNaxtriDSZuLDR-116" target="0uzeYFrNaxtriDSZuLDR-121" edge="1">
          <mxGeometry relative="1" as="geometry" />
        </mxCell>
        <mxCell id="0uzeYFrNaxtriDSZuLDR-116" value="Você prontamente chega de fininho e joga em cima do serial killer mas ele é o próprio demônio e a água fervente não faz nada nele além de cócegas. Ele não reage de outra forma a não ser te matando." style="rounded=0;whiteSpace=wrap;html=1;" parent="1" vertex="1">
          <mxGeometry x="610.25" y="1610" width="217" height="80" as="geometry" />
        </mxCell>
        <mxCell id="0uzeYFrNaxtriDSZuLDR-120" style="edgeStyle=orthogonalEdgeStyle;rounded=0;orthogonalLoop=1;jettySize=auto;html=1;entryX=0.5;entryY=0;entryDx=0;entryDy=0;" parent="1" source="0uzeYFrNaxtriDSZuLDR-118" target="0uzeYFrNaxtriDSZuLDR-119" edge="1">
          <mxGeometry relative="1" as="geometry" />
        </mxCell>
        <mxCell id="0uzeYFrNaxtriDSZuLDR-118" value="Devargarinho você se aproxima do serial killer e com um só golpe apunhala seu pescoço, que o faz agonizar e cair sangrando litros no chão." style="rounded=0;whiteSpace=wrap;html=1;" parent="1" vertex="1">
          <mxGeometry x="406.75" y="1600" width="180" height="80" as="geometry" />
        </mxCell>
        <mxCell id="0uzeYFrNaxtriDSZuLDR-119" value="PARABENS! VOCÊ VENCEU E AINDA GANHOU A GAROTA!" style="rounded=0;whiteSpace=wrap;html=1;fillColor=#dae8fc;strokeColor=#6c8ebf;" parent="1" vertex="1">
          <mxGeometry x="436.25" y="1724" width="120" height="60" as="geometry" />
        </mxCell>
        <mxCell id="0uzeYFrNaxtriDSZuLDR-121" value="VOCÊ MORREU! Jogar denovo?" style="rounded=0;whiteSpace=wrap;html=1;fillColor=#f8cecc;strokeColor=#b85450;" parent="1" vertex="1">
          <mxGeometry x="658.75" y="1724" width="120" height="60" as="geometry" />
        </mxCell>
        <mxCell id="0uzeYFrNaxtriDSZuLDR-125" style="edgeStyle=orthogonalEdgeStyle;rounded=0;orthogonalLoop=1;jettySize=auto;html=1;entryX=0;entryY=0.5;entryDx=0;entryDy=0;" parent="1" source="0uzeYFrNaxtriDSZuLDR-123" target="0uzeYFrNaxtriDSZuLDR-110" edge="1">
          <mxGeometry relative="1" as="geometry" />
        </mxCell>
        <mxCell id="0uzeYFrNaxtriDSZuLDR-130" style="edgeStyle=orthogonalEdgeStyle;rounded=0;orthogonalLoop=1;jettySize=auto;html=1;entryX=1;entryY=0.5;entryDx=0;entryDy=0;" parent="1" source="0uzeYFrNaxtriDSZuLDR-123" target="0uzeYFrNaxtriDSZuLDR-99" edge="1">
          <mxGeometry relative="1" as="geometry" />
        </mxCell>
        <mxCell id="0uzeYFrNaxtriDSZuLDR-123" value="&lt;span&gt;Você rapidamente pensa em como deter o serial killer. O que você faz?&lt;/span&gt;" style="ellipse;whiteSpace=wrap;html=1;" parent="1" vertex="1">
          <mxGeometry x="572.75" y="1445" width="160" height="60" as="geometry" />
        </mxCell>
        <mxCell id="0uzeYFrNaxtriDSZuLDR-134" value="" style="edgeStyle=orthogonalEdgeStyle;rounded=0;orthogonalLoop=1;jettySize=auto;html=1;" parent="1" source="0uzeYFrNaxtriDSZuLDR-131" target="0uzeYFrNaxtriDSZuLDR-133" edge="1">
          <mxGeometry relative="1" as="geometry" />
        </mxCell>
        <mxCell id="0uzeYFrNaxtriDSZuLDR-131" value="Ariel tem a brilhante ideia de vocês dois tentarem arrombar a porta. Os gritos foram ficando mais altos e aterrorizantes." style="whiteSpace=wrap;html=1;rounded=0;" parent="1" vertex="1">
          <mxGeometry x="60" y="1197.5" width="151.25" height="75" as="geometry" />
        </mxCell>
        <mxCell id="0uzeYFrNaxtriDSZuLDR-136" value="" style="edgeStyle=orthogonalEdgeStyle;rounded=0;orthogonalLoop=1;jettySize=auto;html=1;" parent="1" source="0uzeYFrNaxtriDSZuLDR-133" target="0uzeYFrNaxtriDSZuLDR-135" edge="1">
          <mxGeometry relative="1" as="geometry" />
        </mxCell>
        <mxCell id="0uzeYFrNaxtriDSZuLDR-133" value="Finalmente conseguem sair e quando chegam na sala, uma carnificina. Vocês paralisam de medo mas é tarde demais... O SK matou todo mundo...&amp;nbsp;" style="whiteSpace=wrap;html=1;rounded=0;" parent="1" vertex="1">
          <mxGeometry x="44.379999999999995" y="1315" width="182.5" height="80" as="geometry" />
        </mxCell>
        <mxCell id="0uzeYFrNaxtriDSZuLDR-138" value="" style="edgeStyle=orthogonalEdgeStyle;rounded=0;orthogonalLoop=1;jettySize=auto;html=1;" parent="1" source="0uzeYFrNaxtriDSZuLDR-135" target="0uzeYFrNaxtriDSZuLDR-137" edge="1">
          <mxGeometry relative="1" as="geometry" />
        </mxCell>
        <mxCell id="0uzeYFrNaxtriDSZuLDR-140" style="edgeStyle=orthogonalEdgeStyle;rounded=0;orthogonalLoop=1;jettySize=auto;html=1;" parent="1" source="0uzeYFrNaxtriDSZuLDR-135" target="0uzeYFrNaxtriDSZuLDR-139" edge="1">
          <mxGeometry relative="1" as="geometry" />
        </mxCell>
        <mxCell id="0uzeYFrNaxtriDSZuLDR-135" value="O que você faz?" style="ellipse;whiteSpace=wrap;html=1;rounded=0;" parent="1" vertex="1">
          <mxGeometry x="74.50999999999999" y="1415" width="122.25" height="30" as="geometry" />
        </mxCell>
        <mxCell id="0uzeYFrNaxtriDSZuLDR-149" value="" style="edgeStyle=orthogonalEdgeStyle;rounded=0;orthogonalLoop=1;jettySize=auto;html=1;" parent="1" source="0uzeYFrNaxtriDSZuLDR-137" target="0uzeYFrNaxtriDSZuLDR-148" edge="1">
          <mxGeometry relative="1" as="geometry" />
        </mxCell>
        <mxCell id="0uzeYFrNaxtriDSZuLDR-137" value="Corre que nem louca pra bem longe" style="whiteSpace=wrap;html=1;rounded=0;" parent="1" vertex="1">
          <mxGeometry x="29.989999999999995" y="1485" width="100.01" height="40" as="geometry" />
        </mxCell>
        <mxCell id="0uzeYFrNaxtriDSZuLDR-143" value="" style="edgeStyle=orthogonalEdgeStyle;rounded=0;orthogonalLoop=1;jettySize=auto;html=1;" parent="1" source="0uzeYFrNaxtriDSZuLDR-139" target="0uzeYFrNaxtriDSZuLDR-142" edge="1">
          <mxGeometry relative="1" as="geometry" />
        </mxCell>
        <mxCell id="0uzeYFrNaxtriDSZuLDR-139" value="Bola um plano com Ariel para capturar ou se possível matar o SK" style="whiteSpace=wrap;html=1;rounded=0;" parent="1" vertex="1">
          <mxGeometry x="226.88" y="1475" width="121.44" height="60" as="geometry" />
        </mxCell>
        <mxCell id="0uzeYFrNaxtriDSZuLDR-147" style="edgeStyle=orthogonalEdgeStyle;rounded=0;orthogonalLoop=1;jettySize=auto;html=1;entryX=0.5;entryY=0;entryDx=0;entryDy=0;" parent="1" source="0uzeYFrNaxtriDSZuLDR-142" target="0uzeYFrNaxtriDSZuLDR-146" edge="1">
          <mxGeometry relative="1" as="geometry" />
        </mxCell>
        <mxCell id="0uzeYFrNaxtriDSZuLDR-142" value="Vocês demoraram muito pensando e de repente fica tudo escuro." style="whiteSpace=wrap;html=1;rounded=0;" parent="1" vertex="1">
          <mxGeometry x="227.60000000000002" y="1575" width="120" height="60" as="geometry" />
        </mxCell>
        <mxCell id="0uzeYFrNaxtriDSZuLDR-146" value="VOCÊ MORREU! Jogar denovo?" style="rounded=0;whiteSpace=wrap;html=1;fillColor=#f8cecc;strokeColor=#b85450;" parent="1" vertex="1">
          <mxGeometry x="226.88" y="1670" width="120" height="60" as="geometry" />
        </mxCell>
        <mxCell id="0uzeYFrNaxtriDSZuLDR-151" style="edgeStyle=orthogonalEdgeStyle;rounded=0;orthogonalLoop=1;jettySize=auto;html=1;entryX=0.5;entryY=0;entryDx=0;entryDy=0;" parent="1" source="0uzeYFrNaxtriDSZuLDR-148" target="0uzeYFrNaxtriDSZuLDR-150" edge="1">
          <mxGeometry relative="1" as="geometry" />
        </mxCell>
        <mxCell id="0uzeYFrNaxtriDSZuLDR-148" value="Você e Ariel se salvam correndo pra bem longe, um carro de patrulha da polícia estava passando bem na hora. Vocês pedem ajuda, eles chegam ao local, capturam o serial killer e vocês salvam o dia." style="whiteSpace=wrap;html=1;rounded=0;" parent="1" vertex="1">
          <mxGeometry x="16.12" y="1565" width="190.01" height="105" as="geometry" />
        </mxCell>
        <mxCell id="0uzeYFrNaxtriDSZuLDR-150" value="PARABENS! VOCÊ SOBREVIVEU! Pena que seus amigos não tiveram a mesma sorte R.I.P." style="rounded=0;whiteSpace=wrap;html=1;fillColor=#dae8fc;strokeColor=#6c8ebf;" parent="1" vertex="1">
          <mxGeometry x="29.99" y="1710" width="158.57" height="60" as="geometry" />
        </mxCell>
      </root>
    </mxGraphModel>
  </diagram>
</mxfile>
